<svg width="78" height="78" viewBox="0 0 78 78" fill="none" xmlns="http://www.w3.org/2000/svg">
<path d="M74 76.5C75.3807 76.5 76.5 75.3807 76.5 74C76.5 72.6193 75.3807 71.5 74 71.5C72.6193 71.5 71.5 72.6193 71.5 74C71.5 75.3807 72.6193 76.5 74 76.5Z" fill="#FF826E"/>
<path d="M61.5 71.5V74V76.5H56.5V74V71.5H59H61.5Z" fill="#FF826E"/>
<path d="M44 76.5C45.3807 76.5 46.5 75.3807 46.5 74C46.5 72.6193 45.3807 71.5 44 71.5C42.6193 71.5 41.5 72.6193 41.5 74C41.5 75.3807 42.6193 76.5 44 76.5Z" fill="#FF826E"/>
<path d="M66.5 44V54H64H54H51.5V44H66.5Z" fill="#AAB2BD"/>
<path d="M66.5 39V44H51.5V39H54H59H64H66.5Z" fill="#AAB2BD"/>
<path d="M59 71.5H56.5C55.25 66.5 50.25 62.75 50.25 62.75L50.4625 62.5375C52.725 60.275 54 57.2 54 54H64C64 57.2 65.275 60.275 67.5375 62.5375L67.75 62.75C67.75 62.75 62.75 66.5 61.5 71.5H59ZM59 64C60.375 64 61.5 62.875 61.5 61.5C61.5 60.125 60.375 59 59 59C57.625 59 56.5 60.125 56.5 61.5C56.5 62.875 57.625 64 59 64Z" fill="#E6E9ED"/>
<path d="M60.1625 1.5H57.8375C50.5875 1.5 44.45 6.2125 42.3125 12.75H46.5L54 16.5L57.8875 18.4375C58.5625 18.7875 59 19.4875 59 20.25C59 21.0125 58.5625 21.7125 57.8875 22.0625L54 24L46.5 27.75H44.85C45.5125 28.6125 46.25 29.4125 47.075 30.1375L47.7375 30.7125C48.925 31.75 49.875 33.0375 50.5125 34.45C51.15 35.8625 51.5 37.4125 51.5 39H54H59H64H66.5C66.5 35.825 67.875 32.8 70.2625 30.7125L70.925 30.1375C72.7 28.575 74.0875 26.6875 75.0375 24.5875C75.9875 22.4875 76.5 20.2 76.5 17.8375C76.5 8.8125 69.1875 1.5 60.1625 1.5Z" fill="#FFEAA7"/>
<path d="M68.2625 19.7375C68.725 20.1875 69 20.8125 69 21.5C69 22.1875 68.725 22.8125 68.2625 23.2625C67.8125 23.725 67.1875 24 66.5 24C65.65 24 64.8125 23.875 64 23.65V21.5C64 20.8125 64.275 20.1875 64.7375 19.7375C65.1875 19.275 65.8125 19 66.5 19C67.1875 19 67.8125 19.275 68.2625 19.7375Z" fill="#FCD770"/>
<path d="M46.5 12.75V20.25H29V12.75H42.3125H46.5Z" fill="#69D6F4"/>
<path d="M46.5 20.25V27.75H44.85H34H29V20.25H46.5Z" fill="#FF826E"/>
<path d="M9 12.75V27.75H6.5C3.7375 27.75 1.5 25.5125 1.5 22.75V17.75C1.5 14.9875 3.7375 12.75 6.5 12.75H9Z" fill="#AAB2BD"/>
<path d="M57.8875 18.4375L54 16.5L46.5 12.75V20.25V27.75L54 24L57.8875 22.0625C58.5625 21.7125 59 21.0125 59 20.25C59 19.4875 58.5625 18.7875 57.8875 18.4375Z" fill="#AAB2BD"/>
<path d="M29 39L34 76.5H6.5L11.5 39H29Z" fill="#B4DD7F"/>
<path d="M24 12.75C24 11.375 25.125 10.25 26.5 10.25C27.1875 10.25 27.8125 10.525 28.2625 10.9875C28.725 11.4375 29 12.0625 29 12.75V20.25V27.75H34V30.125C34 31.825 33.425 33.475 32.3625 34.8L29 39H11.5L10.675 37.775C9.5875 36.125 9 34.2 9 32.225V27.75V12.75C9 12.0625 9.275 11.4375 9.7375 10.9875C10.1875 10.525 10.8125 10.25 11.5 10.25C12.875 10.25 14 11.375 14 12.75C14 11.375 15.125 10.25 16.5 10.25C17.1875 10.25 17.8125 10.525 18.2625 10.9875C18.725 11.4375 19 12.0625 19 12.75C19 11.375 20.125 10.25 21.5 10.25C22.1875 10.25 22.8125 10.525 23.2625 10.9875C23.725 11.4375 24 12.0625 24 12.75Z" fill="#F0D0B4"/>
<path d="M74 70.25C72.3725 70.25 70.9975 71.2988 70.48 72.75H62.75V71.6775C63.9287 67.2412 68.455 63.7837 68.5013 63.7487L69.6525 62.8812L68.42 61.6512C66.675 59.905 65.6062 57.6663 65.3288 55.2487H67.75V40.25V39C67.75 36.1838 68.9662 33.5037 71.0875 31.6488L71.7438 31.0725C75.5612 27.7325 77.75 22.9075 77.75 17.8363C77.75 8.14 69.86 0.25 60.1637 0.25H57.8375C50.5175 0.25 44.0487 4.7375 41.4412 11.5H30.0375C29.52 10.045 28.13 9 26.5 9C25.5362 9 24.665 9.37625 24 9.975C23.335 9.37625 22.4638 9 21.5 9C20.5362 9 19.665 9.37625 19 9.975C18.335 9.37625 17.4638 9 16.5 9C15.5363 9 14.665 9.37625 14 9.975C13.335 9.37625 12.4637 9 11.5 9C9.8725 9 8.4975 10.0487 7.98 11.5H6.5C3.05375 11.5 0.25 14.3038 0.25 17.75V22.75C0.25 26.1963 3.05375 29 6.5 29H7.75V32.2225C7.75 34.45 8.4025 36.6087 9.64 38.4637L10.1987 39.3025L5.07125 77.75H35.4275L30.3088 39.3638L33.3325 35.585C34.5687 34.0387 35.25 32.0987 35.25 30.12V29H44.2725C44.8812 29.7388 45.535 30.4425 46.255 31.0725L46.9137 31.6488C49.0338 33.5037 50.25 36.1838 50.25 39V40.25V55.25H52.6712C52.395 57.6662 51.3263 59.9062 49.5812 61.6512L48.3488 62.8825L49.4987 63.7487C49.545 63.7837 54.0713 67.2412 55.25 71.6775V72.75H47.52C47.0025 71.2988 45.6275 70.25 44 70.25C41.9325 70.25 40.25 71.9325 40.25 74C40.25 76.0675 41.9325 77.75 44 77.75C45.6275 77.75 47.0025 76.7012 47.52 75.25H55.25V77.75H62.75V75.25H70.48C70.9975 76.7012 72.3725 77.75 74 77.75C76.0675 77.75 77.75 76.0675 77.75 74C77.75 71.9325 76.0675 70.25 74 70.25ZM6.5 26.5C4.4325 26.5 2.75 24.8175 2.75 22.75V17.75C2.75 15.6825 4.4325 14 6.5 14H7.75V26.5H6.5ZM44 75.25C43.31 75.25 42.75 74.6888 42.75 74C42.75 73.3112 43.31 72.75 44 72.75C44.69 72.75 45.25 73.3112 45.25 74C45.25 74.6888 44.69 75.25 44 75.25ZM52.75 52.75V45.25H65.25V52.75H52.75ZM57.75 25.25V37.75H55.25V24.7725L58.4413 23.1775C58.8238 22.9862 59.1338 22.7113 59.4062 22.405C60.3888 23.3413 61.5187 24.0688 62.75 24.55V37.75H60.25V25.25H57.75ZM30.25 21.5H45.25V26.5H30.25V21.5ZM47.75 14.7725L52.75 17.2725V23.2275L47.75 25.7275V14.7725ZM55.25 18.5225L57.3225 19.5588C57.5863 19.6912 57.75 19.955 57.75 20.25C57.75 20.545 57.5863 20.8088 57.3225 20.9412L55.25 21.9775V18.5225ZM57.8363 2.75H60.1625C68.4825 2.75 75.25 9.5175 75.25 17.8363C75.25 22.1863 73.3725 26.325 70.0975 29.19L69.4413 29.7663C67.0938 31.82 65.6287 34.6775 65.3138 37.7487H65.25V25.175C65.6612 25.225 66.0788 25.25 66.5 25.25C68.5675 25.25 70.25 23.5675 70.25 21.5C70.25 19.4325 68.5675 17.75 66.5 17.75C64.4325 17.75 62.75 19.4325 62.75 21.5V21.7938C62.1087 21.4412 61.515 20.9963 60.9825 20.465L60.1662 19.6487C59.98 18.6525 59.3713 17.7875 58.4413 17.3225L46.795 11.5H44.1512C46.5962 6.20625 51.8888 2.75 57.8363 2.75ZM65.25 22.6512V21.5C65.25 20.8113 65.81 20.25 66.5 20.25C67.19 20.25 67.75 20.8113 67.75 21.5C67.75 22.1887 67.19 22.75 66.5 22.75C66.0775 22.75 65.6588 22.7162 65.25 22.6512ZM45.25 14V19H30.25V14H45.25ZM7.92875 75.25L12.595 40.25H27.9062L32.5725 75.25H7.92875ZM32.75 30.12C32.75 31.5325 32.2637 32.92 31.38 34.025L28.4 37.75H12.1687L11.72 37.0763C10.7575 35.6338 10.25 33.955 10.25 32.2225V12.75C10.25 12.0612 10.81 11.5 11.5 11.5C12.19 11.5 12.75 12.0612 12.75 12.75V21.5H15.25V12.75C15.25 12.0612 15.81 11.5 16.5 11.5C17.19 11.5 17.75 12.0612 17.75 12.75V21.5H20.25V12.75C20.25 12.0612 20.81 11.5 21.5 11.5C22.19 11.5 22.75 12.0612 22.75 12.75V21.5H25.25V12.75C25.25 12.0612 25.81 11.5 26.5 11.5C27.19 11.5 27.75 12.0612 27.75 12.75V29H32.75V30.12ZM48.56 29.7675L47.9025 29.1912C47.725 29.0362 47.565 28.8638 47.395 28.7L52.75 26.0225V37.75H52.6863C52.3713 34.6787 50.9062 31.82 48.56 29.7675ZM65.25 40.25V42.75H52.75V40.25H65.25ZM52.0675 62.6425C53.8562 60.55 54.9375 57.9875 55.19 55.25H62.81C63.0638 57.9862 64.1438 60.5488 65.9325 62.6425C64.4325 63.9913 61.7787 66.765 60.59 70.25H60.25V65.02C61.7012 64.5025 62.75 63.1275 62.75 61.5C62.75 59.4325 61.0675 57.75 59 57.75C56.9325 57.75 55.25 59.4325 55.25 61.5C55.25 63.1275 56.2988 64.5025 57.75 65.02V70.25H57.41C56.2213 66.765 53.5675 63.9913 52.0675 62.6425ZM57.75 61.5C57.75 60.8112 58.31 60.25 59 60.25C59.69 60.25 60.25 60.8112 60.25 61.5C60.25 62.1888 59.69 62.75 59 62.75C58.31 62.75 57.75 62.1888 57.75 61.5ZM60.25 75.25H57.75V72.75H60.25V75.25ZM74 75.25C73.31 75.25 72.75 74.6888 72.75 74C72.75 73.3112 73.31 72.75 74 72.75C74.69 72.75 75.25 73.3112 75.25 74C75.25 74.6888 74.69 75.25 74 75.25Z" fill="black"/>
<path d="M12.75 2.75H15.25V5.25H12.75V2.75Z" fill="black"/>
<path d="M17.75 2.75H20.25V5.25H17.75V2.75Z" fill="black"/>
<path d="M22.75 2.75H25.25V5.25H22.75V2.75Z" fill="black"/>
<path d="M27.75 2.75H30.25V5.25H27.75V2.75Z" fill="black"/>
</svg>
