<svg width="78" height="78" viewBox="0 0 78 78" fill="none" xmlns="http://www.w3.org/2000/svg">
<path d="M75.125 27.875C74.2625 27.025 73.0875 26.5 71.7875 26.5H21.5H6.2125C3.6125 26.5 1.5 28.6125 1.5 31.2125C1.5 31.4 1.5125 31.6 1.5375 31.7875L5.9875 67.375C6.275 69.7375 8.2875 71.5 10.65 71.5H17.75L24.7625 76.175C25.075 76.3875 25.45 76.5 25.825 76.5C26.8875 76.5 27.75 75.6375 27.75 74.575V71.5H67.35C69.7125 71.5 71.725 69.7375 72.0125 67.375L76.4625 31.7875C76.4875 31.6 76.5 31.4 76.5 31.2125C76.5 29.9125 75.975 28.7375 75.125 27.875Z" fill="#F0D0B4"/>
<path d="M19 55.25H19.2375C20.85 55.25 22.4375 55.3875 24 55.675V66.5H19L16.5 55.25H19Z" fill="#AAB2BD"/>
<path d="M36.5 34V61.5C32.8875 58.4875 28.575 56.4875 24 55.675C22.4375 55.3875 20.85 55.25 19.2375 55.25H19V40.25H19.2375C25.55 40.25 31.65 38.0375 36.5 34Z" fill="#E6E9ED"/>
<path d="M41.5 52.75V61.5C41.5 62.875 40.375 64 39 64C37.625 64 36.5 62.875 36.5 61.5V34C36.5 32.625 37.625 31.5 39 31.5C39.6875 31.5 40.3125 31.775 40.7625 32.2375C41.225 32.6875 41.5 33.3125 41.5 34V42.75V52.75Z" fill="#FCD770"/>
<path d="M19 40.25V55.25H16.5H14C11.2375 55.25 9 53.0125 9 50.25V45.25C9 42.4875 11.2375 40.25 14 40.25H19Z" fill="#FCD770"/>
<path d="M41.5 42.75C44.2625 42.75 46.5 44.9875 46.5 47.75C46.5 50.5125 44.2625 52.75 41.5 52.75V42.75Z" fill="#FF826E"/>
<path d="M34 11.5V19C34 20.375 32.875 21.5 31.5 21.5H21.5H11.5C10.125 21.5 9 20.375 9 19V4C9 2.625 10.125 1.5 11.5 1.5H31.5C32.875 1.5 34 2.625 34 4V11.5Z" fill="#E6E9ED"/>
<path d="M25.3875 9.6875C26.0625 10.0375 26.5 10.7375 26.5 11.5C26.5 12.2625 26.0625 12.9625 25.3875 13.3125L19.425 16.2875C19.15 16.425 18.8375 16.5 18.525 16.5C17.4 16.5 16.5 15.6 16.5 14.475V8.525C16.5 7.4 17.4 6.5 18.525 6.5C18.8375 6.5 19.15 6.575 19.425 6.7125L25.3875 9.6875Z" fill="#FF826E"/>
<path d="M69 14V19H61.5H54V14H69Z" fill="#FFEAA7"/>
<path d="M61.5 19V39H54V26.5V19H61.5Z" fill="#B4DD7F"/>
<path d="M69 26.5V39H61.5V19H69V26.5Z" fill="#FF826E"/>
<path d="M69 6.5V14H54V11.5V6.5C54 3.7375 56.2375 1.5 59 1.5H64C66.7625 1.5 69 3.7375 69 6.5Z" fill="#AAB2BD"/>
<path d="M63.3125 50.3875C62.9625 51.0625 62.2625 51.5 61.5 51.5C60.7375 51.5 60.0375 51.0625 59.6875 50.3875L54 39H61.5H69L63.3125 50.3875Z" fill="#AAB2BD"/>
<path d="M71.7925 25.25H70.25V6.5C70.25 3.05375 67.4463 0.25 64 0.25H59C55.5537 0.25 52.75 3.05375 52.75 6.5V10.25H35.25V4C35.25 1.9325 33.5675 0.25 31.5 0.25H11.5C9.4325 0.25 7.75 1.9325 7.75 4V19C7.75 21.0675 9.4325 22.75 11.5 22.75H20.25V25.25H6.2075C2.9225 25.25 0.25 27.9225 0.25 31.2075C0.25 31.455 0.26625 31.7025 0.29625 31.9463L4.745 67.5325C5.11625 70.5075 7.6575 72.75 10.655 72.75H17.3713L24.0737 77.2188C24.5975 77.5663 25.205 77.75 25.8312 77.75C27.5775 77.75 29 76.3275 29 74.58V72.75H67.345C70.3425 72.75 72.885 70.5075 73.2562 67.5325L77.705 31.9475C77.7337 31.7013 77.75 31.455 77.75 31.2075C77.75 27.9225 75.0775 25.25 71.7925 25.25ZM60.8087 49.8225L56.0225 40.25H66.9775L62.1913 49.8225C61.9275 50.3512 61.0725 50.35 60.8087 49.8225ZM67.75 17.75H55.25V15.25H67.75V17.75ZM55.25 37.75V20.25H60.25V37.75H55.25ZM67.75 37.75H62.75V20.25H67.75V37.75ZM59 2.75H64C66.0675 2.75 67.75 4.4325 67.75 6.5V12.75H55.25V6.5C55.25 4.4325 56.9325 2.75 59 2.75ZM10.25 19V4C10.25 3.31125 10.81 2.75 11.5 2.75H31.5C32.19 2.75 32.75 3.31125 32.75 4V19C32.75 19.6887 32.19 20.25 31.5 20.25H11.5C10.81 20.25 10.25 19.6887 10.25 19ZM22.75 22.75H31.5C33.5675 22.75 35.25 21.0675 35.25 19V12.75H52.75V25.25H22.75V22.75ZM75.2237 31.635L70.775 67.2213C70.5587 68.9475 69.0837 70.25 67.345 70.25H26.5V74.58C26.5 75.0813 25.8738 75.4125 25.4587 75.1375L18.1287 70.25H10.655C8.915 70.25 7.44125 68.9475 7.225 67.2225L2.77625 31.635C2.75875 31.4925 2.75 31.35 2.75 31.2075C2.75 29.3013 4.3 27.75 6.2075 27.75H52.75V39.295L58.2275 50.25H51.5V52.75H61.5C62.7475 52.75 63.8687 52.0563 64.4275 50.9413L70.25 39.295V27.75H71.7925C73.7 27.75 75.25 29.3013 75.25 31.2075C75.25 31.35 75.2412 31.4925 75.2237 31.635Z" fill="black"/>
<path d="M42.75 41.6263V34C42.75 31.9325 41.0675 30.25 39 30.25C37.1612 30.25 35.635 31.5825 35.3175 33.33C30.765 36.9813 25.0812 39 19.2362 39H14C10.5538 39 7.75 41.8038 7.75 45.25V50.25C7.75 53.6963 10.5538 56.5 14 56.5H15.4975L17.9988 67.75H25.25V57.235C28.9088 58.1175 32.3538 59.7913 35.3175 62.1688C35.635 63.9175 37.1612 65.25 39 65.25C41.0675 65.25 42.75 63.5675 42.75 61.5V53.8737C45.5988 53.2925 47.75 50.7687 47.75 47.75C47.75 44.7312 45.5988 42.2075 42.75 41.6263ZM20.25 41.455C25.6213 41.26 30.8375 39.5487 35.25 36.51V58.99C30.8375 55.9513 25.6213 54.2387 20.25 54.045V41.455ZM10.48 51.5H15.25V49H10.25V46.5H15.25V44H10.48C10.9975 42.5487 12.3725 41.5 14 41.5H17.75V54H14C12.3725 54 10.9975 52.9513 10.48 51.5ZM22.75 65.25H20.0025L18.0588 56.5H19.2375C20.4188 56.5 21.59 56.605 22.7512 56.7663V65.25H22.75ZM40.25 61.5C40.25 62.1887 39.69 62.75 39 62.75C38.31 62.75 37.75 62.1887 37.75 61.5V34C37.75 33.3112 38.31 32.75 39 32.75C39.69 32.75 40.25 33.3112 40.25 34V61.5ZM42.75 51.27V44.2313C44.2012 44.7488 45.25 46.1237 45.25 47.7512C45.25 49.3787 44.2012 50.7525 42.75 51.27Z" fill="black"/>
<path d="M25.9412 8.5725L19.9862 5.595C19.535 5.37 19.0275 5.25 18.5225 5.25C16.7188 5.25 15.25 6.7175 15.25 8.5225V14.4775C15.25 16.2825 16.7188 17.75 18.5225 17.75C19.0275 17.75 19.535 17.63 19.9862 17.405L25.9412 14.4275C27.0562 13.87 27.75 12.7475 27.75 11.5C27.75 10.2525 27.0562 9.13 25.9412 8.5725ZM24.8225 12.1913L18.8675 15.1688C18.385 15.4138 17.75 15.0238 17.7487 14.4775V8.5225C17.75 8.09625 18.0963 7.75 18.5225 7.75C18.6425 7.75 18.7613 7.7775 18.8675 7.83125L24.8225 10.8087C25.0863 10.9412 25.25 11.205 25.25 11.5C25.25 11.795 25.0863 12.0588 24.8225 12.1913Z" fill="black"/>
<path d="M51.5 55.25H69V57.75H51.5V55.25Z" fill="black"/>
<path d="M51.5 60.25H69V62.75H51.5V60.25Z" fill="black"/>
<path d="M66.5 65.25H69V67.75H66.5V65.25Z" fill="black"/>
<path d="M51.5 65.25H54V67.75H51.5V65.25Z" fill="black"/>
<path d="M61.5 65.25H64V67.75H61.5V65.25Z" fill="black"/>
<path d="M56.5 65.25H59V67.75H56.5V65.25Z" fill="black"/>
</svg>
