<svg width="78" height="78" viewBox="0 0 78 78" fill="none" xmlns="http://www.w3.org/2000/svg">
<path d="M38.8249 11.5C35.9662 11.5 33.6499 9.1825 33.6499 6.325V1.5H43.9999V6.325C43.9999 9.1825 41.6824 11.5 38.8249 11.5Z" fill="#FCD770"/>
<path d="M39 11.5H16.5V6.5C16.5 3.7375 18.7375 1.5 21.5 1.5H34V6.5C34 9.2625 36.2375 11.5 39 11.5Z" fill="#969FAA"/>
<path d="M56.5 1.5C59.2625 1.5 61.5 3.7375 61.5 6.5V11.5H39C40.375 11.5 41.625 10.9375 42.5375 10.0375C43.4375 9.125 44 7.875 44 6.5V1.5H56.5Z" fill="#969FAA"/>
<path d="M20.25 64L20.9625 62C21.5 61.8125 22.025 61.5875 22.5375 61.3375L24.45 62.2625L25.2125 61.5H61.5V71.5C61.5 74.2625 59.2625 76.5 56.5 76.5H21.5C18.7375 76.5 16.5 74.2625 16.5 71.5V64H20.25Z" fill="#969FAA"/>
<path d="M26.5 67.75V70.25C26.5 70.9375 25.9375 71.5 25.25 71.5H22.75C22.0625 71.5 21.5 70.9375 21.5 70.25V67.75C21.5 67.0625 22.0625 66.5 22.75 66.5H25.25C25.9375 66.5 26.5 67.0625 26.5 67.75Z" fill="#E6E9ED"/>
<path d="M44 67.75V70.25C44 70.9375 43.4375 71.5 42.75 71.5H35.25C34.5625 71.5 34 70.9375 34 70.25V67.75C34 67.0625 34.5625 66.5 35.25 66.5H42.75C43.4375 66.5 44 67.0625 44 67.75Z" fill="#E6E9ED"/>
<path d="M56.5 67.75V70.25C56.5 70.9375 55.9375 71.5 55.25 71.5H52.75C52.0625 71.5 51.5 70.9375 51.5 70.25V67.75C51.5 67.0625 52.0625 66.5 52.75 66.5H55.25C55.9375 66.5 56.5 67.0625 56.5 67.75Z" fill="#E6E9ED"/>
<path d="M16.5 11.5V40.25C21.3375 40.25 25.25 44.1625 25.25 49C25.25 53.8375 21.3375 57.75 16.5 57.75V61.5H61.5V11.5H16.5Z" fill="#69D6F4"/>
<path d="M25.2125 61.5L24.45 62.2625L22.5375 61.3375C22.025 61.5875 21.5 61.8125 20.9625 62L20.25 64H16.5H12.75L12.0375 62C11.5 61.8125 10.975 61.5875 10.4625 61.3375L8.55 62.2625L3.2375 56.95L4.1625 55.0375C3.9125 54.525 3.6875 54 3.5 53.4625L1.5 52.75V45.25L3.5 44.5375C3.6875 44 3.9125 43.475 4.1625 42.9625L3.2375 41.05L8.55 35.7375L10.4625 36.6625C10.975 36.4125 11.5 36.1875 12.0375 36L12.75 34H16.5H20.25L20.9625 36C21.5 36.1875 22.025 36.4125 22.5375 36.6625L24.45 35.7375L29.7625 41.05L28.8375 42.9625C29.0875 43.475 29.3125 44 29.5 44.5375L31.5 45.25V51.5V52.75L29.5 53.4625C29.3125 54 29.0875 54.525 28.8375 55.0375L29.7625 56.95L25.2125 61.5ZM25.25 49C25.25 44.1625 21.3375 40.25 16.5 40.25C11.6625 40.25 7.75 44.1625 7.75 49C7.75 53.8375 11.6625 57.75 16.5 57.75C21.3375 57.75 25.25 53.8375 25.25 49Z" fill="#FFC729"/>
<path d="M16.5 40.25C21.3375 40.25 25.25 44.1625 25.25 49C25.25 53.8375 21.3375 57.75 16.5 57.75C11.6625 57.75 7.75 53.8375 7.75 49C7.75 44.1625 11.6625 40.25 16.5 40.25ZM20.25 49C20.25 46.925 18.575 45.25 16.5 45.25C14.425 45.25 12.75 46.925 12.75 49C12.75 51.075 14.425 52.75 16.5 52.75C18.575 52.75 20.25 51.075 20.25 49Z" fill="#FCD770"/>
<path d="M76.5 19V39C76.5 40.375 75.375 41.5 74 41.5H61.5H51.5L47.0125 45.9875C46.6875 46.3125 46.2375 46.5 45.7625 46.5C44.7875 46.5 44 45.7125 44 44.7375V41.5H39C37.625 41.5 36.5 40.375 36.5 39V26.5V19C36.5 17.625 37.625 16.5 39 16.5H61.5H74C75.375 16.5 76.5 17.625 76.5 19Z" fill="#E6E9ED"/>
<path d="M70.4 26.35C71.075 27.025 71.5 27.9625 71.5 29C71.5 31.075 69.825 32.75 67.75 32.75H56.65C55.325 32.75 54.0375 33.2875 53.1125 34.2375C51.75 35.6375 49.85 36.5 47.75 36.5C44.975 36.5 42.8 34.9875 41.5 32.75V31.5H49L47.75 26.5H41.5V25.25C42.8 23.0125 44.975 21.5 47.75 21.5C49.85 21.5 51.75 22.3625 53.1125 23.7625C54.0375 24.7125 55.325 25.25 56.65 25.25H67.75C68.7875 25.25 69.725 25.675 70.4 26.35Z" fill="#CF9E76"/>
<path d="M42.75 65.25H35.25C33.8712 65.25 32.75 66.3712 32.75 67.75V70.25C32.75 71.6287 33.8712 72.75 35.25 72.75H42.75C44.1287 72.75 45.25 71.6287 45.25 70.25V67.75C45.25 66.3712 44.1287 65.25 42.75 65.25ZM35.25 70.25V67.75H42.75L42.7525 70.25H35.25Z" fill="black"/>
<path d="M25.25 65.25H22.75C21.3712 65.25 20.25 66.3712 20.25 67.75V70.25C20.25 71.6287 21.3712 72.75 22.75 72.75H25.25C26.6287 72.75 27.75 71.6287 27.75 70.25V67.75C27.75 66.3712 26.6287 65.25 25.25 65.25ZM22.75 70.25V67.75H25.25L25.2525 70.25H22.75Z" fill="black"/>
<path d="M55.25 65.25H52.75C51.3712 65.25 50.25 66.3712 50.25 67.75V70.25C50.25 71.6287 51.3712 72.75 52.75 72.75H55.25C56.6287 72.75 57.75 71.6287 57.75 70.25V67.75C57.75 66.3712 56.6287 65.25 55.25 65.25ZM52.75 70.25V67.75H55.25L55.2525 70.25H52.75Z" fill="black"/>
<path d="M39 7.75C39.6904 7.75 40.25 7.19036 40.25 6.5C40.25 5.80964 39.6904 5.25 39 5.25C38.3096 5.25 37.75 5.80964 37.75 6.5C37.75 7.19036 38.3096 7.75 39 7.75Z" fill="black"/>
<path d="M56.5 7.75C57.1904 7.75 57.75 7.19036 57.75 6.5C57.75 5.80964 57.1904 5.25 56.5 5.25C55.8096 5.25 55.25 5.80964 55.25 6.5C55.25 7.19036 55.8096 7.75 56.5 7.75Z" fill="black"/>
<path d="M67.75 24H56.655C55.6588 24 54.6938 23.595 54.005 22.89C52.3463 21.1875 50.1237 20.25 47.75 20.25C44.7013 20.25 42.0287 21.8438 40.4187 24.6238L40.25 24.9138V27.75H46.7738L47.3988 30.25H40.25V33.0862L40.4187 33.3775C42.0287 36.1563 44.7013 37.75 47.75 37.75C50.1237 37.75 52.3463 36.8125 54.005 35.11C54.6938 34.405 55.6588 34 56.655 34H67.75C70.5075 34 72.75 31.7575 72.75 29C72.75 26.2425 70.5075 24 67.75 24ZM67.75 31.5H56.655C54.9888 31.5 53.37 32.18 52.215 33.365C51.03 34.58 49.4438 35.25 47.75 35.25C45.8212 35.25 44.1537 34.3687 42.9862 32.75H50.6012L48.7262 25.25H42.9862C44.1537 23.6313 45.8212 22.75 47.75 22.75C49.4438 22.75 51.03 23.42 52.215 24.635C53.37 25.82 54.9888 26.5 56.655 26.5H67.75C69.1287 26.5 70.25 27.6213 70.25 29C70.25 30.3787 69.1287 31.5 67.75 31.5Z" fill="black"/>
<path d="M74 15.25H62.75V6.5C62.75 3.05375 59.9463 0.25 56.5 0.25H21.5C18.0537 0.25 15.25 3.05375 15.25 6.5V32.75H11.865L11.06 35.0325C10.8625 35.11 10.6663 35.1912 10.4713 35.2775L8.285 34.2325L1.7325 40.7863L2.7775 42.9725C2.69125 43.1675 2.60875 43.3637 2.5325 43.5612L0.25 44.365V53.635L2.5325 54.44C2.61 54.6363 2.69125 54.8325 2.7775 55.0288L1.7325 57.215L8.285 63.7675L10.4713 62.7225C10.6663 62.8088 10.8625 62.8913 11.06 62.9675L11.865 65.25H15.25V71.5C15.25 74.9463 18.0537 77.75 21.5 77.75H56.5C59.9463 77.75 62.75 74.9463 62.75 71.5V42.75H74C76.0675 42.75 77.75 41.0675 77.75 39V19C77.75 16.9325 76.0675 15.25 74 15.25ZM60.25 6.5V10.25H43.9675C44.7612 9.2025 45.25 7.9125 45.25 6.5V2.75H56.5C58.5675 2.75 60.25 4.4325 60.25 6.5ZM35.25 6.5V2.75H42.75V6.5C42.75 8.5675 41.0675 10.25 39 10.25C36.9325 10.25 35.25 8.5675 35.25 6.5ZM21.5 2.75H32.75V6.5C32.75 7.9125 33.2388 9.2025 34.0325 10.25H17.75V6.5C17.75 4.4325 19.4325 2.75 21.5 2.75ZM13.0212 61.0087L12.4475 60.8138C11.97 60.6512 11.4887 60.45 11.0162 60.2175L10.4713 59.95L8.8025 60.7487L4.75 56.6963L5.54875 55.0275L5.28125 54.4825C5.04875 54.01 4.8475 53.5288 4.685 53.0513L4.49 52.4775L2.75 51.865V46.135L4.49125 45.5212L4.68625 44.9475C4.84875 44.47 5.05 43.9888 5.2825 43.5163L5.55 42.9712L4.75125 41.3025L8.80375 37.25L10.4725 38.0475L11.0175 37.78C11.4862 37.5488 11.9688 37.3488 12.45 37.1838L13.0225 36.9875L13.635 35.25H19.365L19.9788 36.99L20.5512 37.1862C21.0325 37.3512 21.515 37.5513 21.9837 37.7825L22.5287 38.05L24.1975 37.2525L28.25 41.305L27.4513 42.9738L27.7188 43.5188C27.9513 43.9913 28.1525 44.4725 28.315 44.95L28.51 45.5238L30.25 46.135V51.865L28.5088 52.4788L28.3138 53.0525C28.1513 53.53 27.95 54.0112 27.7175 54.4837L27.45 55.0288L28.2488 56.6975L24.1962 60.75L22.5275 59.9513L21.9825 60.2188C21.51 60.4512 21.0287 60.6525 20.5512 60.815L19.9775 61.01L19.365 62.75H13.635L13.0212 61.0087ZM56.5 75.25H21.5C19.4325 75.25 17.75 73.5675 17.75 71.5V65.25H21.135L21.94 62.9675C22.1362 62.89 22.3325 62.8088 22.5287 62.7225L24.715 63.7675L25.7313 62.75H60.25V71.5C60.25 73.5675 58.5675 75.25 56.5 75.25ZM60.25 60.25H28.2313L31.2675 57.2137L30.2225 55.0275C30.3088 54.8325 30.3913 54.6363 30.4675 54.4388L32.75 53.635V44.365L30.4675 43.56C30.39 43.3637 30.3088 43.1675 30.2225 42.9712L31.2675 40.785L24.715 34.2313L22.5287 35.2762C22.335 35.19 22.1375 35.1087 21.94 35.0312L21.135 32.75H17.75V12.75H60.25V15.25H39C36.9325 15.25 35.25 16.9325 35.25 19V39C35.25 41.0675 36.9325 42.75 39 42.75H42.75V44.7325C42.75 46.3962 44.1038 47.75 45.7675 47.75C46.5625 47.75 47.34 47.4275 47.9012 46.8662L52.0175 42.75H60.25V60.25ZM75.25 39C75.25 39.6888 74.69 40.25 74 40.25H50.9825L46.1338 45.0988C45.835 45.395 45.25 45.155 45.25 44.7325V40.25H39C38.31 40.25 37.75 39.6888 37.75 39V19C37.75 18.3113 38.31 17.75 39 17.75H74C74.69 17.75 75.25 18.3113 75.25 19V39Z" fill="black"/>
<path d="M26.5 49C26.5 43.4863 22.0138 39 16.5 39C10.9863 39 6.5 43.4863 6.5 49C6.5 54.5138 10.9863 59 16.5 59C22.0138 59 26.5 54.5138 26.5 49ZM16.5 56.5C12.3637 56.5 9 53.1362 9 49C9 44.8637 12.3637 41.5 16.5 41.5C20.6362 41.5 24 44.8637 24 49C24 53.1362 20.6362 56.5 16.5 56.5Z" fill="black"/>
<path d="M16.5 44C13.7425 44 11.5 46.2425 11.5 49C11.5 51.7575 13.7425 54 16.5 54C19.2575 54 21.5 51.7575 21.5 49C21.5 46.2425 19.2575 44 16.5 44ZM16.5 51.5C15.1212 51.5 14 50.3787 14 49C14 47.6212 15.1212 46.5 16.5 46.5C17.8787 46.5 19 47.6212 19 49C19 50.3787 17.8787 51.5 16.5 51.5Z" fill="black"/>
<path d="M20.25 15.25H22.75V17.75H20.25V15.25Z" fill="black"/>
<path d="M25.25 15.25H32.75V17.75H25.25V15.25Z" fill="black"/>
<path d="M20.25 20.25H32.75V22.75H20.25V20.25Z" fill="black"/>
<path d="M20.25 25.25H32.75V27.75H20.25V25.25Z" fill="black"/>
<path d="M35.25 55.25H57.75V57.75H35.25V55.25Z" fill="black"/>
<path d="M35.25 50.25H57.75V52.75H35.25V50.25Z" fill="black"/>
</svg>
