<svg width="80" height="80" viewBox="0 0 80 80" fill="none" xmlns="http://www.w3.org/2000/svg">
<path d="M63.2258 1.29034H78.7097V16.7742H63.2258V1.29034Z" fill="#FF826E"/>
<path d="M63.2258 21.9355H78.7097V37.4194H63.2258V21.9355Z" fill="#FF826E"/>
<path d="M58.0644 3.87099V11.6129H3.87085V3.87099C3.87085 2.44518 5.02569 1.29034 6.45149 1.29034H55.4837C56.9096 1.29034 58.0644 2.44518 58.0644 3.87099Z" fill="#5CD6B3"/>
<path d="M58.0644 11.6129V42.5807H56.7741V43.3242C56.7741 44.6452 55.9676 45.821 54.7467 46.3242C54.7337 46.3307 54.7192 46.3355 54.7063 46.342C53.4821 46.8516 52.0725 46.5984 51.1338 45.6597L50.6079 45.1339L45.1338 50.6081L45.6596 51.1339C46.5983 52.0726 46.8515 53.4823 46.3418 54.7065C46.3354 54.7194 46.3305 54.7339 46.3241 54.7468C45.8208 55.9678 44.645 56.7742 43.3241 56.7742H42.5805V60.6452H21.9354V51.6129C21.9354 50.9 21.3579 50.3226 20.645 50.3226H9.03214L3.87085 55.4839V11.6129H58.0644Z" fill="#E6E9ED"/>
<path d="M32.258 16.7742V34.8387H9.03223V16.7742H32.258Z" fill="#69D6F4"/>
<path d="M40 16.7742H50.3226V24.5162H40V16.7742Z" fill="#FF826E"/>
<path d="M40 29.6775H50.3226V37.4194H40V29.6775Z" fill="#FF826E"/>
<path d="M23.3613 23.9388C24.0693 24.292 24.5161 25.0162 24.5161 25.8065C24.5161 26.2017 24.4048 26.5807 24.2048 26.9049C24.0032 27.2291 23.7161 27.4968 23.3613 27.6743L19.7951 29.4565C19.5064 29.6017 19.1855 29.6775 18.8613 29.6775C18.2855 29.6775 17.7645 29.4436 17.3855 29.0662C17.008 28.6872 16.7742 28.1662 16.7742 27.5904V24.0226C16.7742 22.871 17.7097 21.9355 18.8613 21.9355C19.1855 21.9355 19.5064 22.0114 19.7951 22.1565L23.3613 23.9388Z" fill="#FF826E"/>
<path d="M19.3548 45.1613C20.7801 45.1613 21.9355 44.0059 21.9355 42.5806C21.9355 41.1554 20.7801 40 19.3548 40C17.9296 40 16.7742 41.1554 16.7742 42.5806C16.7742 44.0059 17.9296 45.1613 19.3548 45.1613Z" fill="#FF826E"/>
<path d="M21.9354 60.6452V77.4194C21.9354 78.1323 21.358 78.7097 20.6451 78.7097H2.58061C1.8677 78.7097 1.29028 78.1323 1.29028 77.4194V58.0646H7.7419C8.4548 58.0646 9.03222 57.4871 9.03222 56.7742V50.3226H20.6451C21.358 50.3226 21.9354 50.9001 21.9354 51.613V60.6452Z" fill="#F0D0B4"/>
<path d="M9.03222 50.3226V56.7742C9.03222 57.4871 8.4548 58.0646 7.7419 58.0646H1.29028L3.87093 55.4839L9.03222 50.3226Z" fill="#ECC19C"/>
<path d="M78.7096 56.7742V64.5162H77.966C76.6451 64.5162 75.4693 65.3226 74.966 66.5436C74.9596 66.5565 74.9547 66.571 74.9483 66.5839C74.4386 67.8081 74.6918 69.2178 75.6306 70.1565L76.1564 70.6823L70.6822 76.1565L70.216 75.6903C69.2628 74.7371 67.8273 74.4307 66.5838 74.9484C66.5709 74.9549 66.5564 74.9597 66.5435 74.9645C65.3225 75.4694 64.516 76.6452 64.516 77.9662V78.7097H56.7741V77.9662C56.7741 76.6452 55.9677 75.4694 54.7467 74.9662C54.7338 74.9597 54.7193 74.9549 54.7064 74.9484C53.4628 74.4307 52.0273 74.7371 51.0741 75.6903L50.608 76.1565L45.1338 70.6823L45.6596 70.1565C46.5983 69.2178 46.8515 67.8081 46.3419 66.5839C46.3354 66.571 46.3306 66.5565 46.3257 66.5436C45.8209 65.3226 44.6451 64.5162 43.3241 64.5162H42.5806V60.6452V56.7742H43.3241C44.6451 56.7742 45.8209 55.9678 46.3241 54.7468C46.3306 54.7339 46.3354 54.7194 46.3419 54.7065C46.8515 53.4823 46.5983 52.0726 45.6596 51.1339L45.1338 50.6081L50.608 45.1339L51.1338 45.6597C52.0725 46.5984 53.4822 46.8517 54.7064 46.342C54.7193 46.3355 54.7338 46.3307 54.7467 46.3242C55.9677 45.821 56.7741 44.6452 56.7741 43.3242V42.5807H58.0644H64.516V43.3242C64.516 44.6452 65.3225 45.821 66.5435 46.3242C66.5564 46.3307 66.5709 46.3355 66.5838 46.342C67.808 46.8517 69.2176 46.5984 70.1564 45.6597L70.6822 45.1339L76.1564 50.6081L75.6306 51.1339C74.6918 52.0726 74.4386 53.4823 74.9483 54.7065C74.9547 54.7194 74.9596 54.7339 74.966 54.7468C75.4693 55.9678 76.6451 56.7742 77.966 56.7742H78.7096Z" fill="#FCD770"/>
<path d="M5.16138 61.9354H18.0646V64.5161H5.16138V61.9354Z" fill="black"/>
<path d="M5.16138 67.0968H18.0646V69.6774H5.16138V67.0968Z" fill="black"/>
<path d="M5.16138 72.2581H18.0646V74.8387H5.16138V72.2581Z" fill="black"/>
<path d="M12.9033 56.7742H18.0646V59.3548H12.9033V56.7742Z" fill="black"/>
<path d="M76.1585 54.2555L76.14 54.2108C75.8256 53.4553 75.9835 52.606 76.5426 52.0471L77.9808 50.6089L70.6818 43.31L69.2434 44.7479C68.6845 45.3069 67.8355 45.4652 67.0871 45.1537L67.036 45.1324C66.2892 44.8242 65.8064 44.1144 65.8064 43.3245V41.2903H59.3548V3.87097C59.3548 1.73661 57.6182 0 55.4839 0H6.45161C4.31726 0 2.58065 1.73661 2.58065 3.87097V54.9495L0 57.5302V77.4193C0 78.8423 1.15774 80 2.58065 80H20.6452C22.0681 80 23.2258 78.8423 23.2258 77.4193V61.9355H41.2903V65.8064H43.3242C44.1142 65.8064 44.8239 66.289 45.1319 67.035L45.1503 67.0795C45.4647 67.835 45.3068 68.6844 44.7477 69.2432L43.3095 70.6814L50.6087 77.9805L51.9865 76.6027C52.5821 76.0074 53.4552 75.8258 54.2152 76.1419L54.2542 76.1581C55.001 76.4663 55.4837 77.1761 55.4837 77.966V80H65.8063V77.9661C65.8063 77.1761 66.2889 76.4663 67.0374 76.1574L67.0794 76.14C67.8348 75.826 68.7081 76.0073 69.3037 76.6031L70.6816 77.9805L77.9806 70.6816L76.5424 69.2435C75.9834 68.6845 75.8255 67.8352 76.1418 67.0752L76.1579 67.0361C76.4663 66.2892 77.176 65.8066 77.9658 65.8066H80V55.484H77.966C77.176 55.4839 76.4663 55.0013 76.1585 54.2555ZM6.45161 2.58065H55.4839C56.1953 2.58065 56.7742 3.15952 56.7742 3.87097V10.3226H5.16129V3.87097C5.16129 3.15952 5.74016 2.58065 6.45161 2.58065ZM7.74194 53.4377V56.7742H4.40548L7.74194 53.4377ZM20.6452 77.4193H2.58065V59.3548H7.74194C9.16484 59.3548 10.3226 58.1971 10.3226 56.7742V51.6129H20.6452V77.4193ZM41.2903 55.4839V59.3548H23.2258V51.6129C23.2258 50.19 22.0681 49.0323 20.6452 49.0323H8.4979L5.16129 52.3689V12.9032H56.7742V41.2903H55.4839V43.3244C55.4839 44.1142 55.0013 44.824 54.2555 45.1318L54.211 45.1503C53.4555 45.464 52.6061 45.3068 52.0469 44.7476L50.6089 43.3097L43.3097 50.6087L44.7479 52.0468C45.3069 52.6058 45.4648 53.4552 45.1485 54.2152L45.1324 54.2542C44.824 55.0011 44.1144 55.4837 43.3245 55.4837H41.2903V55.4839ZM77.4193 63.2587C75.8064 63.4544 74.4102 64.5071 73.7723 66.0523L73.7576 66.0879C73.1119 67.6395 73.3523 69.3776 74.3547 70.6581L70.6519 74.3608C69.3473 73.3642 67.6181 73.1205 66.0902 73.7566L66.0518 73.7727C64.5073 74.41 63.4545 75.8063 63.259 77.4193H58.0318C57.8361 75.8064 56.7834 74.41 55.2382 73.7723L55.2026 73.7576C53.6731 73.1211 51.9434 73.3644 50.6387 74.3606L46.936 70.6581C47.9384 69.3776 48.1789 67.6398 47.5348 66.0924L47.5179 66.0513C46.8803 64.5069 45.484 63.4542 43.8711 63.2587V58.0316C45.484 57.836 46.8803 56.7832 47.5182 55.2381L47.5329 55.2024C48.1785 53.6508 47.9382 51.9127 46.9358 50.6323L50.6323 46.9358C51.9126 47.9381 53.6513 48.1784 55.2097 47.5298L55.2389 47.5177C56.7832 46.8805 57.8358 45.484 58.0315 43.8711H63.2585C63.4542 45.484 64.5069 46.8805 66.0521 47.5182L66.0879 47.5331C67.6397 48.179 69.3776 47.9384 70.6579 46.936L74.3544 50.6324C73.3519 51.9129 73.1115 53.6506 73.7555 55.1981L73.7726 55.2394C74.41 56.7835 75.8064 57.8363 77.4192 58.0318V63.2587H77.4193Z" fill="black"/>
<path d="M64.894 56.3963L69.1429 60.6451L64.894 64.894L66.7189 66.7188L72.7926 60.6451L66.7189 54.5714L64.894 56.3963Z" fill="black"/>
<path d="M54.5715 54.5714L48.4978 60.6451L54.5715 66.7188L56.3964 64.894L52.1475 60.6451L56.3964 56.3963L54.5715 54.5714Z" fill="black"/>
<path d="M56.8452 67.9445L62.0028 52.4554L64.4518 53.2709L59.2942 68.7599L56.8452 67.9445Z" fill="black"/>
<path d="M61.9355 0V18.0645H80.0001V0H61.9355ZM77.4194 15.4839H64.5162V2.58064H77.4194V15.4839Z" fill="black"/>
<path d="M75.7511 7.36402L73.9263 5.53918L69.6774 9.78822L68.0092 8.11983L66.1843 9.94467L69.6774 13.4376L75.7511 7.36402Z" fill="black"/>
<path d="M61.9355 38.7097H80.0001V20.6451H61.9355V38.7097ZM64.5162 23.2258H77.4194V36.129H64.5162V23.2258Z" fill="black"/>
<path d="M69.6774 30.4334L68.0092 28.765L66.1843 30.5898L69.6774 34.0827L75.7511 28.0092L73.9263 26.1843L69.6774 30.4334Z" fill="black"/>
<path d="M23.9391 22.785L20.3726 21.0016C19.906 20.7685 19.3836 20.6451 18.862 20.6451C16.9994 20.6451 15.4839 22.1606 15.4839 24.0232V27.5895C15.4839 29.4522 16.9994 30.9677 18.862 30.9677C19.3836 30.9677 19.906 30.8443 20.3726 30.6111L23.9392 28.8279C25.091 28.2518 25.8065 27.094 25.8065 25.8064C25.8065 24.5189 25.091 23.3611 23.9391 22.785ZM22.785 26.5198L19.2187 28.3029C19.1086 28.358 18.9852 28.3871 18.8621 28.3871C18.4224 28.3871 18.0647 28.0293 18.0647 27.5897V24.0234C18.0647 23.5835 18.4224 23.2259 18.8621 23.2259C18.9853 23.2259 19.1086 23.2551 19.2187 23.31L22.785 25.0932C23.057 25.229 23.2258 25.5024 23.2258 25.8064C23.2258 26.1105 23.057 26.3839 22.785 26.5198Z" fill="black"/>
<path d="M7.74194 36.1291H33.5484V15.4839H7.74194V36.1291ZM10.3226 18.0645H30.9677V33.5484H10.3226V18.0645Z" fill="black"/>
<path d="M14.1936 7.74196C14.9063 7.74196 15.484 7.16426 15.484 6.45164C15.484 5.73901 14.9063 5.16132 14.1936 5.16132C13.481 5.16132 12.9033 5.73901 12.9033 6.45164C12.9033 7.16426 13.481 7.74196 14.1936 7.74196Z" fill="black"/>
<path d="M9.03227 7.74196C9.74489 7.74196 10.3226 7.16426 10.3226 6.45164C10.3226 5.73901 9.74489 5.16132 9.03227 5.16132C8.31964 5.16132 7.74194 5.73901 7.74194 6.45164C7.74194 7.16426 8.31964 7.74196 9.03227 7.74196Z" fill="black"/>
<path d="M19.3548 7.74196C20.0674 7.74196 20.6451 7.16426 20.6451 6.45164C20.6451 5.73901 20.0674 5.16132 19.3548 5.16132C18.6422 5.16132 18.0645 5.73901 18.0645 6.45164C18.0645 7.16426 18.6422 7.74196 19.3548 7.74196Z" fill="black"/>
<path d="M19.3548 38.7097C17.6727 38.7097 16.2386 39.7886 15.7058 41.2904H7.74194V43.871H15.7058C16.2384 45.3728 17.6726 46.4516 19.3548 46.4516C21.0371 46.4516 22.4711 45.3728 23.0039 43.871H33.5484V41.2904H23.0039C22.4711 39.7886 21.0369 38.7097 19.3548 38.7097ZM19.3548 43.871C18.6434 43.871 18.0645 43.2921 18.0645 42.5807C18.0645 41.8692 18.6434 41.2904 19.3548 41.2904C20.0663 41.2904 20.6452 41.8692 20.6452 42.5807C20.6452 43.2921 20.0663 43.871 19.3548 43.871Z" fill="black"/>
<path d="M51.6129 28.3871H38.7097V38.7097H51.6129V28.3871ZM49.0323 36.129H41.2904V30.9677H49.0323V36.129Z" fill="black"/>
<path d="M51.6129 15.4839H38.7097V25.8065H51.6129V15.4839ZM49.0323 23.2258H41.2904V18.0645H49.0323V23.2258Z" fill="black"/>
</svg>
